<?xml version="1.0" encoding="UTF-8" standalone="no"?>
<svg
   version="1.1"
   id="Half-Live_2_Logo"
   width="370"
   height="320"
   viewBox="0 0 370 320"
   sodipodi:docname="hl.svg"
   xml:space="preserve"
   inkscape:version="1.3 (0e150ed6c4, 2023-07-21)"
   xmlns:inkscape="http://www.inkscape.org/namespaces/inkscape"
   xmlns:sodipodi="http://sodipodi.sourceforge.net/DTD/sodipodi-0.dtd"
   xmlns="http://www.w3.org/2000/svg"
   xmlns:svg="http://www.w3.org/2000/svg"
   xmlns:rdf="http://www.w3.org/1999/02/22-rdf-syntax-ns#"
   xmlns:cc="http://creativecommons.org/ns#"
   xmlns:dc="http://purl.org/dc/elements/1.1/"><defs
     id="defs2" /><sodipodi:namedview
     id="namedview2"
     pagecolor="#ffffff"
     bordercolor="#000000"
     borderopacity="0.25"
     inkscape:showpageshadow="2"
     inkscape:pageopacity="0.0"
     inkscape:pagecheckerboard="0"
     inkscape:deskcolor="#d1d1d1"
     inkscape:zoom="2"
     inkscape:cx="131.75"
     inkscape:cy="88.75"
     inkscape:window-width="1920"
     inkscape:window-height="1017"
     inkscape:window-x="-8"
     inkscape:window-y="-8"
     inkscape:window-maximized="1"
     inkscape:current-layer="layer1" /><title
     id="title1">Half-Life 2 Logo</title><desc
     id="desc1">For more Information see: http://commons.wikimedia.org/wiki/File:Half-Life_2_Logo.svg</desc><g
     inkscape:groupmode="layer"
     id="layer1"
     inkscape:label="Gmed"><g
       id="g3"
       transform="matrix(0.43623391,0,0,0.523193,76.926616,58.708507)"
       style="display:inline;stroke-width:2.09319"
       inkscape:label="g3"><path
         style="display:none;fill:#0081ff;fill-opacity:1;stroke-width:3.15893"
         d="M 14.2188,84.918749 49.074437,40.839682 128.44449,0.05624482 l 46.19422,-9.88689352 57.02083,7.1303697 65.92238,19.225496 46.91773,29.71213 c 0,0 21.38024,40.198765 23.16192,43.111719 1.78169,2.912954 26.72529,37.868404 27.91309,41.946534 1.18778,4.07814 5.93894,49.52022 5.93894,53.01576 0,3.49555 -7.72064,76.90198 -7.72064,76.90198 0,0 -48.10551,68.16314 -49.8872,71.07609 -1.78168,2.91295 -44.54215,33.79027 -47.51163,35.53803 -2.96948,1.74778 -89.08429,12.23441 -89.08429,12.23441 L 122.9767,375.40114 54.084838,332.87202 4.7915272,250.72672 3.0098408,175.5725 8.9487945,98.670519 Z"
         id="path4" /><path
         class="st0"
         d="m 343.92,384 c -101.6,0 -203.2,0 -304.8,0 -0.89,-0.44 -1.84,-0.31 -2.79,-0.38 -4.51,-0.36 -8.61,-2.07 -12.56,-4.13 C 17.87,376.42 12.93,372.18 8.85,366.95 4.92,361.91 2.12,356.3 0.68,350.05 0.29,348.37 0.37,346.64 0.27,344.93 0.25,344.59 0.36,344.19 0,343.93 0,242.64 0,141.36 0,40.08 0.43,39.41 0.25,38.64 0.27,37.93 0.38,33.29 1.84,29.01 3.9,24.96 9.22,14.48 17.25,6.88 28.25,2.46 31.61,1.11 35.06,0.37 38.65,0.19 39.13,0.16 39.67,0.6 40.08,0 141.92,0 243.76,0 345.6,0 c 0.71,0.77 1.68,0.36 2.49,0.42 1.92,0.15 3.74,0.64 5.53,1.25 7.31,2.46 13.58,6.56 18.82,12.2 5.39,5.8 9.12,12.5 10.9,20.25 0.38,1.66 0.29,3.37 0.39,5.06 0.02,0.32 -0.07,0.67 0.26,0.9 0,101.28 0,202.56 0,303.84 -0.58,0.8 -0.35,1.76 -0.34,2.59 0.03,2.7 -0.63,5.24 -1.53,7.71 -4.23,11.55 -11.88,20.12 -22.8,25.73 -3.13,1.61 -6.42,2.91 -9.96,3.43 -1.52,0.22 -3.04,0.26 -4.56,0.33 -0.32,0.02 -0.65,-0.03 -0.88,0.29 z"
         id="path1-8"
         style="display:inline;fill:#0081ff;fill-opacity:1;stroke-width:2.09319" /><path
         class="st1"
         d="m 223.47544,221.91748 c -2.84,3.4 -5.68,7.51 -9.22,10.88 -7.2,6.84 -16.2,10.41 -25.77,12.49 -11.53,2.51 -23.13,2.18 -34.76,0.61 -14.52,-1.95 -27.27,-7.83 -38.38,-17.22 -9.35,-7.91 -16.06,-17.8 -20.840003,-29.04 -4.88,-11.46 -7.4,-23.51 -8.68,-35.81 -1.85,-17.78 -0.99,-35.42 4.33,-52.6 4.37,-14.110005 11.010003,-27.000006 21.080003,-38.030006 11.67,-12.79 25.85,-21.11 42.77,-24.6 9.46,-1.95 19.01,-1.95 28.57,-0.4 17,2.77 30.13,11.49 39.75,25.68 0.25,0.32 1.19,1.72 1.19,1.72 0,0 0,-4.78 0,-6.83 -0.01,-5.16 0,-16.51 0,-16.51 0,0 1.09,0 1.35,0 15.28,-0.05 49.97,-0.01 49.97,-0.01 0,0 -0.01,1.96 -0.01,4.28 0,64.400006 0.09,128.800006 -0.05,193.190006 -0.04,20.36 -5.79,39 -18.84,54.95 -10.15,12.4 -23.25,20.57 -38.25,25.85 -14.6,5.14 -29.7,6.91 -45.08,6.26 -16.81,-0.71 -32.99,-4.35 -47.75,-12.64 -22.22,-12.49 -35.720003,-31.22 -39.070003,-56.78 -0.45,-3.39 -0.56,-6.84 -0.69,-10.26 -0.01,-0.21 -0.07,-1.31 -0.07,-1.31 0,0 1.04,0 1.26,0 15.240003,-0.07 30.480003,-0.08 45.720003,-0.03 0.18,0 0.9,0.01 0.9,0.01 0,0 -0.01,0.96 -0.01,1.12 0.16,8.86 2.62,16.86 8.77,23.44 4.59,4.91 10.26,8.16 16.7,9.89 14.96,4.03 29.59,3.19 43.49,-3.98 12.5,-6.45 20.4,-16.54 21.3,-30.85 0.67,-10.79 0.27,-21.66 0.34,-32.49 -0.02,-0.54 -0.02,-1.1 -0.02,-0.98 z"
         id="path2-9-2"
         style="display:inline;fill:#999999;stroke-width:2.09319"
         inkscape:label="path2-9" /><path
         class="st1"
         d="m 235.57,221.91 c -2.84,3.4 -5.68,7.51 -9.22,10.88 -7.2,6.84 -16.2,10.41 -25.77,12.49 -11.53,2.51 -23.13,2.18 -34.76,0.61 -14.52,-1.95 -27.27,-7.83 -38.38,-17.22 -9.35,-7.91 -16.06,-17.8 -20.84,-29.04 -4.88,-11.46 -7.4,-23.51 -8.68,-35.81 -1.85,-17.78 -0.99,-35.42 4.33,-52.6 4.37,-14.11 11.01,-27 21.08,-38.03 11.67,-12.79 25.85,-21.11 42.77,-24.6 9.46,-1.95 19.01,-1.95 28.57,-0.4 17,2.77 30.13,11.49 39.75,25.68 0.25,0.32 1.19,1.72 1.19,1.72 0,0 0,-4.78 0,-6.83 -0.01,-5.16 0,-16.51 0,-16.51 0,0 1.09,0 1.35,0 15.28,-0.05 49.97,-0.01 49.97,-0.01 0,0 -0.01,1.96 -0.01,4.28 0,64.4 0.09,128.8 -0.05,193.19 -0.04,20.36 -5.79,39 -18.84,54.95 -10.15,12.4 -23.25,20.57 -38.25,25.85 -14.6,5.14 -29.7,6.91 -45.08,6.26 -16.81,-0.71 -32.99,-4.35 -47.75,-12.64 -22.22,-12.49 -35.72,-31.22 -39.07,-56.78 -0.45,-3.39 -0.56,-6.84 -0.69,-10.26 -0.01,-0.21 -0.07,-1.31 -0.07,-1.31 0,0 1.04,0 1.26,0 15.24,-0.07 30.48,-0.08 45.72,-0.03 0.18,0 0.9,0.01 0.9,0.01 0,0 -0.01,0.96 -0.01,1.12 0.16,8.86 2.62,16.86 8.77,23.44 4.59,4.91 10.26,8.16 16.7,9.89 14.96,4.03 29.59,3.19 43.49,-3.98 12.5,-6.45 20.4,-16.54 21.3,-30.85 0.67,-10.79 0.27,-21.66 0.34,-32.49 -0.02,-0.54 -0.02,-1.1 -0.02,-0.98 z"
         id="path2-9"
         style="display:inline;stroke-width:2.09319"
         inkscape:label="path2-9" /><path
         class="st0"
         d="m 150.04189,149.82542 c -0.29378,-11.79 0.91073,-23.37 5.43502,-34.35 5.31751,-12.89 14.60111,-20.739994 28.30128,-22.879994 9.46966,-1.48 18.68472,-0.85 27.41013,3.47 8.71562,4.320004 14.09188,11.699994 17.61731,20.639994 3.45686,8.75 5.21957,17.94 5.34688,27.31 0.11752,8.38 0.0881,16.89 -1.17514,25.14 -2.53635,16.57 -13.7981,32.08 -31.07265,36.4 -15.75667,3.94 -32.01276,-2.23 -41.40408,-15.81 -6.60037,-9.53 -9.64594,-20.21 -10.43917,-31.68 -0.17626,-2.73 -0.0196,-5.49 -0.0196,-8.24 z"
         id="path3-3"
         style="fill:#808080;stroke-width:2.09319"
         inkscape:label="path3_shadow" /><path
         class="st0"
         d="m 146.98558,149.82 c -0.27763,-11.79 0.86066,-23.37 5.13611,-34.35 5.02508,-12.89 13.79811,-20.74 26.74481,-22.88 8.94887,-1.48 17.65714,-0.85 25.90266,3.47 8.23631,4.32 13.31689,11.7 16.64842,20.64 3.26676,8.75 4.93253,17.94 5.05283,27.31 0.11104,8.38 0.0832,16.89 -1.11052,25.14 -2.39684,16.57 -13.03924,32.08 -29.36374,36.4 -14.89011,3.94 -30.25218,-2.23 -39.12702,-15.81 -6.23736,-9.53 -9.11545,-20.21 -9.86504,-31.68 -0.16658,-2.73 -0.0184,-5.49 -0.0184,-8.24 z"
         id="path3"
         style="display:inline;stroke-width:2.09319" /></g><path
       fill="#ff6000"
       d="m 148.984,10.378 c 28.292,-2.092 60.246,-0.947 92.846,-0.947 29.215,0 67.794,-4.206 88.109,3.79 18.095,7.122 32.394,22.523 29.37,49.265 -1.518,13.418 -10.561,27.648 -15.159,38.844 -15.217,37.058 -32.812,79.412 -47.37,114.636 -22.42,54.242 -73.281,97.021 -149.691,91.9 C 105.66,305.087 72.718,284.618 50.453,261.442 27.049,237.079 9.715,203.733 9.715,159.122 9.715,116.327 27.566,81.436 50.453,56.801 72.858,32.686 105.273,13.61 148.984,10.378 m 134.47683,16.110249 c 0.14158,14.157442 0.53937,53.55172 0.71653,67.708751 l 51.37575,-0.965082 -0.36051,-12.315717 -38.56533,0.342418 -0.24307,-14.406636 38.24472,-0.729882 -0.35332,-13.276458 -38.81924,0.560147 0.24246,-13.911221 38.03967,-0.740162 -0.19661,-12.304604 M 72.243,73.854 c -17.719,18.101 -31.533,40.191 -34.107,72.003 -4.841,59.829 25.983,97.852 58.74,117.479 33.944,20.338 81.501,23.41 119.373,2.842 34.803,-18.899 56.164,-49.133 62.529,-87.161 7.796,-46.582 -13.714,-89.051 -36.949,-109.9 C 220.669,50.13 189.321,33.98 144.246,38.8 111.955,42.252 88.753,56.987 72.243,73.854"
       id="path1"
       sodipodi:nodetypes="csccccccscccccccccccccccccccccc"
       inkscape:label="path1" /><text
       xml:space="preserve"
       style="fill:#999999;fill-opacity:1"
       x="253.625"
       y="53.125"
       id="text4"><tspan
         id="tspan4"
         sodipodi:role="line" /></text><text
       xml:space="preserve"
       style="fill:#999999;fill-opacity:1"
       x="289.625"
       y="60.5"
       id="text5"><tspan
         sodipodi:role="line"
         id="tspan5"
         x="289.625"
         y="60.5" /></text><path
       style="fill:#ffffff;fill-opacity:1"
       d="m 408.45312,68.992187 -0.92187,-0.757812 -0.9375,-0.273438 -1.02344,-0.28125 -1.0922,-0.70627 -0.81759,-0.68501 -0.61872,-0.828641 -0.41984,-1.016466 -0.26517,-0.994369 -0.0773,-1.115903 -0.0111,-0.917029 0.59662,-1.502602 0.95018,-1.027514 1.07171,-0.662913 0.99437,-0.419845 1.25953,-0.386699 1.49155,-0.209922 1.28163,0.0221 1.41422,0.243068 1.22639,0.364602 2.18761,0.718155 1.80091,0.419845 2.05503,0.08839 2.90577,-0.09944 1.92244,-0.651865 1.10486,-0.618718 0.90598,-0.364602 2.03293,-1.767767 1.5468,-1.878252 1.70147,-2.441728 -0.0442,-0.718156 v -1.104854 l -0.41985,-0.662913 -0.50823,-0.07734 -0.46404,0.132582 -0.30936,0.07734 -0.45299,0.165728 -0.26516,0.408796 -0.4088,0.441942 c 0,0 -0.48614,0.397747 -0.53033,0.419845 -0.0442,0.0221 -1.00542,0.486135 -1.00542,0.486135 l -0.81759,0.3867 -0.50823,0.132582 -1.20429,-0.05524 c 0,0 -2.40859,-0.29831 -2.45278,-0.309359 -0.0442,-0.01105 -3.83385,-1.093806 -3.83385,-1.093806 l -2.50801,-0.585573 -3.87804,-0.430893 -0.83969,0.198874 -2.13237,1.204291 -2.35334,1.557845 -1.5026,1.270582 -1.07171,1.248486 -1.32583,1.834058 -0.71815,1.889301 -0.56348,2.43068 -0.43089,2.04398 -0.0663,1.524699 0.13258,0.60767 0.99437,1.82301 0.3867,0.60767 0.89493,1.093805 0.91703,1.060661 0.51928,0.607669 1.70148,0.397748 0.98332,0.243068 0.99437,-0.187825 0.54137,-0.651864 0.30936,-0.486136 z"
       id="path7" /></g><g
     inkscape:groupmode="layer"
     id="layer2"
     inkscape:label="Shadows" /><style
     type="text/css"
     id="style1">&#10;	.st0{fill:#0081FF;}&#10;	.st1{fill:#FFFFFF;}&#10;</style><metadata
     id="metadata1"><rdf:RDF><cc:Work
         rdf:about=""><dc:title>Half-Life 2 Logo</dc:title></cc:Work></rdf:RDF></metadata></svg>
